# xmcd
#
# Track frame offsets:
#	183
#	10368
#	21980
#	32080
#	43155
#	55360
#	67625
#	78990
#	90970
#	102963
#	113365
#	125958
#
# Disc length: 1874 seconds
#
# Revision: 4
# Processed by: cddbd v1.5.1PL0 Copyright (c) Steve Scherf et al.
# Submitted via: MusicWizard 7.1.1b
#
DISCID=9107500c
DTITLE=Bobby Bland - The Best Of Bobby Bland
DYEAR=1900
DGENRE=Rhythm and Blues
TTITLE0=Poverty
TTITLE1=I Smell Trouble
TTITLE2=Someday
TTITLE3=I´ll Take Care Of You
TTITLE4=I Pity The Fool
TTITLE5=Cry Cry Cry
TTITLE6=Turn On Your Love Light
TTITLE7=Call On Me
TTITLE8=Stormy Monday
TTITLE9=Ain´t Nothing You Can Do
TTITLE10=Farther Up The Road
TTITLE11=If You Could Read My Mind
EXTD=MCAD-321219
EXTT0=
EXTT1=
EXTT2=
EXTT3=
EXTT4=
EXTT5=Yesterday: 06.07.2001
EXTT6=Yesterday: 27.05.1994
EXTT7=Yesterday: 29.04.1994
EXTT8=
EXTT9=
EXTT10=
EXTT11=
PLAYORDER=
